<?xml version="1.0" encoding="utf-8"?>
<!-- Generator: Adobe Illustrator 25.2.0, SVG Export Plug-In . SVG Version: 6.00 Build 0)  -->
<svg version="1.1" id="Layer_1" xmlns="http://www.w3.org/2000/svg" xmlns:xlink="http://www.w3.org/1999/xlink" x="0px" y="0px"
	 viewBox="0 0 612 792" style="enable-background:new 0 0 612 792;" xml:space="preserve">
<style type="text/css">
	.st0{fill:#FFFFFF;}
</style>
<g>
	<path class="st0" d="M99.2,74.4c28.5-9.7,62.3-1.3,83,20.6s27.2,56.1,16,84c-6.1,15.2-17,31.8-9.6,46.4c7.1,14,26,15.8,41.6,15.7
		c26.7-0.1,53.8-0.3,79.5-7.8c25.7-7.4,50.1-23.1,62-47.1c15.3-30.8,4.8-71.9-23.3-91.7"/>
	<g>
		<path d="M99.9,76.8c16.4-5.5,34.4-5,50.7,0.7c16.3,5.7,30.4,16.9,39.4,31.7c8.9,14.9,12.7,32.7,10.8,49.9c-1,9-3.9,17.3-7.6,25.5
			c-4,8.9-8.6,17.9-9.4,27.8c-0.7,8.8,2.9,17.4,9.9,22.8c6.3,4.8,14.3,6.7,22,7.7c9.1,1.1,18.4,0.7,27.5,0.6
			c11-0.1,22.1-0.5,33.1-1.6c20.1-1.9,40.1-6.3,58-15.8c15.6-8.3,29.7-20.4,38.3-36c7.9-14.5,10.2-31.3,7.6-47.5
			c-2.5-15.9-10-31.2-21.4-42.6c-2.8-2.8-5.8-5.3-9.1-7.6c-1.1-0.8-2.8-0.2-3.4,0.9c-0.7,1.3-0.2,2.6,0.9,3.4
			c12.7,9,21.7,22.6,26,37.5c4.4,14.9,4.2,31.1-1.4,45.7c-6.1,15.8-18.5,28.6-32.7,37.6c-16.2,10.2-34.7,15.6-53.5,18.3
			c-10.8,1.5-21.7,2.1-32.6,2.5c-9.9,0.3-19.9,0.6-29.8,0.2c-7.5-0.3-15.4-1.2-22.2-4.6c-6.9-3.4-11.8-9.6-12.3-17.5
			c-0.6-9.3,3.7-18.2,7.5-26.5c3.8-8.4,7.3-16.7,8.8-25.8c2.9-17.4,0.2-35.4-7.4-51.2c-7.6-15.7-20.4-28.4-36.1-36.1
			C145.8,69,128,66.2,110.7,69c-4.1,0.7-8.2,1.7-12.2,3C95.5,73,96.8,77.8,99.9,76.8L99.9,76.8z"/>
	</g>
</g>
<g>
	<path class="st0" d="M161.8,139.8c86.9,16.4,173.8,32.8,260.7,49.2"/>
	<g>
		<path d="M161.1,142.2c34,6.4,68,12.8,101.9,19.2c33.8,6.4,67.6,12.7,101.4,19.1c19.1,3.6,38.2,7.2,57.4,10.8
			c1.3,0.2,2.7-0.4,3.1-1.7c0.3-1.2-0.4-2.8-1.7-3.1c-34-6.4-68-12.8-101.9-19.2c-33.8-6.4-67.6-12.7-101.4-19.1
			c-19.1-3.6-38.2-7.2-57.4-10.8c-1.3-0.2-2.7,0.4-3.1,1.7C159,140.4,159.8,142,161.1,142.2L161.1,142.2z"/>
	</g>
</g>
</svg>
